<svg xmlns="http://www.w3.org/2000/svg" viewBox="0 0 1452.31 308.92"><defs><style>.cls-1{fill:#e4282b;}.cls-2{fill:#fd0;}.cls-3{fill:#009fe3;}</style></defs><g id="Layer_2" data-name="Layer 2"><g id="Layer_1-2" data-name="Layer 1"><path class="cls-1" d="M39.42,276C27.59,263.86,17,248.75,16.72,231.41c-1.26-15.86,5.21-33.7,21-40.62,13.19-4,27.2-.08,38.84,6.37,30.06,18.5,58.32,39.9,89.86,56.1,22.46,11.76,48.13,15.42,73.21,17.58,15.2-.09,30.64-.26,45.22-5,8.79-1.91,15.86-7.68,24.24-10.62-19.08,13.58-38.45,27.39-61,35.14C188.27,313.16,91.85,321.71,39.42,276"></path><path class="cls-2" d="M307.26,217.42c-6.22,14.45-15.53,29-30.66,35.74-13.48,7-31.62,8.33-43.65-2.23-8.48-9.52-10.33-22.69-9-34.85,5-32.08,13.16-63.75,15.53-96.19,1.89-23.19-4.55-46-12.09-67.76-5.8-12.68-11.78-25.49-21.44-35.88-5-6.64-12.73-10.37-18.48-16.25C206.58,10.81,226,21.8,241.33,37.69c42.61,41.42,86.43,118.71,65.93,179.73"></path><path class="cls-3" d="M131.54,6.57c16.22-2.32,34.09-2.06,48.12,7.2,13.4,7.77,24.12,22.47,21,38.25-4.05,12.2-14.84,20.72-26.4,26-31.31,12.68-63.95,22.4-94.2,37.49-21.75,10.59-38.76,28.08-54.24,45.94C17.53,173.08,9.21,184.91,5,198.59c-3.3,7.74-2.57,16.27-4.79,24.26-.42-22-.83-44.26,5.31-65.62,14.59-58,60.66-135.93,126-150.66"></path><path class="cls-1" d="M646.88,82.77h0C638.67,97.33,629,111.21,619.3,125c14.64.86,29.33-.07,44,.25,19-.32,37.93.53,56.86-.25-6.85-11.11-13.35-22.42-20.3-33.48-5-6-7.06-14.26-14.37-18.48-8.3-1.52-16.92-.39-25.32-.7-7-.51-10.33,5.92-13.29,10.41m-279-34.5c4.05-3.88,10.34-4,15.81-4.4,29-.21,57.93.3,86.88,0,7.47.47,15.45-.49,22.35,2.63,1.11,1.33,2.26,2.64,3.47,3.94,1.07,4,2.39,9.08-1.21,12.47-3.4,3.44-8.86,3.35-13.58,3.44-13.21-.15-26.4.36-39.6.06-6.37,1-13.79-1-19.33,2.61-4.44,5.7-2.43,13.17-2.3,19.69,16.26.68,32.58-.49,48.84.86,5.77.8,11.9,4.91,11.94,10.52.53,9,1.37,18,.17,27-.29,6.31-6.64,12.3-13.87,12.4-15.74.91-31.59-.4-47.29.48.19,5.59-.32,11.26,1,16.74,2.44,3.22,7.29,3.84,11.33,3.67,32.17-.07,64.33.23,96.47-.13,8.74-.85,11.45-9.52,16.37-14.71,17.22-26.5,33.07-53.72,50.06-80.39,6.69-6,13.12-12.92,22.45-15.57,7.5-2.24,15.57-1.33,23.35-1.48,20.52-.49,41.16-1.94,61.64-.1,8.46.3,17.57-.39,25.09,3.68,4.37,1.76,7.3,5.19,10.67,8.08,6.74,4.85,9.67,12.4,14.42,18.61a40.46,40.46,0,0,1,6.32,12.34c10.26,16.24,20.7,32.42,30.51,48.89,2.74,4.72,6.8,8.7,9.78,13.32,2.63,3.74,6.67,7.79,12.17,7.39,9,0,18,.57,27,.62.17,7.79.92,15.62-.17,23.4-14.15.82-28.34.19-42.5.36-11.59-.3-23.88,1.29-34.74-3.17-5.06-3.92-10.69-7.86-13.14-13.62-3.5-6.34-8.37-12-11.93-18.28q-66.61-.11-133.23,0c-5.21,9.41-10.52,18.88-18,27-7,6.78-17.76,8.06-27.54,8q-76.71.09-153.36,0c-9.21.09-18.4-.32-27.57-.77-8.35-.59-14.25-7.82-13.72-15-.17-35.07,0-70.13-.06-105.19C363.36,58.41,363.07,52.15,367.92,48.27Z"></path><path class="cls-1" d="M843,48.75c5.18-3.12,11.41-5.63,17.89-4.81,35.83.3,71.67-.36,107.52.05,8.54,0,17.44-1,25.65,1.62,6.71,2.83,6.12,10.38,5.07,15.84-3.29,3.48-8.32,5-13.34,4.83-20,0-40.08,0-60.12.21-8.76.86-17.91-.89-26.37,1.84-.21,7.82-1.18,15.67-.35,23.49-.22,22.05.1,44.12.32,66.18a18.11,18.11,0,0,0,9.09,2.31q39.39.12,78.79,0c-.49-6.67,1.09-13.44-.77-20-7.76-.81-17.13-.49-21.86-7.16-.59-5.37-2.37-12.85,4.15-15.95,9.92-5.29,22-2.19,32.84-3.12,11.39.43,23.48-1.64,34.22,2.54,4.92,2.9,8.67,7.64,8.62,13,.38,13.11.16,26.26.12,39.39A15.18,15.18,0,0,1,1032.38,184c-12.87,1.12-25.82.52-38.73.71q-66.36,0-132.72,0c-7.52-.33-16.62-2.62-19.92-9.28-1.56-6.25-.87-12.69-.87-19,0-32.79.08-65.56,0-98.35-.14-3.26,1.21-6.38,2.9-9.25"></path><path class="cls-1" d="M1116.16,68.89h0a73.66,73.66,0,0,0-.72,10.17c.57,26.57-.33,53.18.51,79.76,6.31,2.24,13.27,1.37,19.91,1.55,17.82-.23,35.66.33,53.43-.1.55-31.17.1-62.36,0-93.55-17.78-1-35.62.08-53.41-.4-6.63,0-13.84-.64-19.77,2.57M1070,44.47c5-1.33,10.29-.48,15.43-.42,12.11.58,24.2-.82,36.31.17,23.11-.41,46.27-.66,69.39.08,15.69,0,31.42-.65,47.1.29,7,1,10.71,7.56,10.14,13.45-.19,36.53.09,73-.29,109.55.3,4.91.57,10.87-4,14.37-7.32,4.12-16.22,1.78-24.31,2.65-46.88,0-93.78.28-140.64-.17a26.68,26.68,0,0,1-17.92-3.69c-4-3.33-4.61-8.58-4.59-13.19.2-37,0-74,.17-110.95C1056.92,50.13,1063.86,46.39,1070,44.47Z"></path><path class="cls-1" d="M1268.88,47.15c5.76-4.24,13.51-2.44,20.33-3.18,7.66-.25,15.91-.62,22.92,2.62,5.22,3.08,7.27,8.94,7.39,14.3,0,32.67-.3,65.36.2,98.05a34.31,34.31,0,0,0,10.64,1.43q34.74,0,69.5,0c14.25.2,28.56-.55,42.8.81,3.44.18,5.94,2.51,8.23,4.56q.61,3.78,1.42,7.55c-.77,2.76-.76,6.13-3.6,8-5.25,3.94-12.56,2.66-18.85,3.35q-76.69.15-153.35,0c-4,.21-7-2.42-10.29-4-2.45-3-4.28-6.51-4.07-10.28-.15-35.57,0-71.16-.09-106.71.29-5.84.22-13.27,6.82-16.53"></path><path class="cls-3" d="M1414,276.19q0,7.95,1.9,11.51c1.85,3.45,4.42,5.17,7.74,5.17,2.63,0,4.87-1.29,6.7-3.87s2.77-6.42,2.77-11.55q0-8.58-2.69-12.35a8.09,8.09,0,0,0-6.87-3.77,8.19,8.19,0,0,0-6.81,3.73q-2.74,3.72-2.74,11.13M1444.57,302H1434v-7.28a18.93,18.93,0,0,1-6.28,6.39,14.23,14.23,0,0,1-7.29,2.13q-7.49,0-12.82-6.9t-5.33-19.24q0-12.62,5.19-19.2a16,16,0,0,1,13.12-6.56q7.26,0,12.57,6.92v-24.7h11.44Zm-60.45-29q-.12-5.72-2.56-8.69a7.41,7.41,0,0,0-5.94-3,7.55,7.55,0,0,0-6.18,3.13c-1.63,2.09-2.42,4.94-2.39,8.53Zm-.66,13.28,11.43,2.2a21.51,21.51,0,0,1-6.94,11,18.64,18.64,0,0,1-11.88,3.76q-11.29,0-16.71-8.46-4.27-6.78-4.29-17.12,0-12.33,5.62-19.32a17.48,17.48,0,0,1,14.22-7,18.15,18.15,0,0,1,15.23,7.31q5.58,7.32,5.33,22.42h-28.63q.14,5.82,2.77,9.08a8.14,8.14,0,0,0,6.57,3.24,6.37,6.37,0,0,0,4.5-1.67A10.63,10.63,0,0,0,1383.46,286.27Zm-33.06-33.93v10.42h-7.85v20.09a54.67,54.67,0,0,0,.23,7.12,2.94,2.94,0,0,0,1,1.67,3,3,0,0,0,1.94.65,13.25,13.25,0,0,0,4.62-1.25l1,10.19a20.17,20.17,0,0,1-9,2,12.78,12.78,0,0,1-5.57-1.19,8.33,8.33,0,0,1-3.63-3.1,13.31,13.31,0,0,1-1.61-5.14,74.72,74.72,0,0,1-.36-9.29V262.76h-5.26V252.34h5.26V242.5l11.43-7.75v17.59Zm-43,49.61V252.34h11.43V302Zm0-56.3V233.51h11.43v12.14Zm-75.06,6.69h10.52v6.77q5.65-7.81,13.48-7.82a13,13,0,0,1,7.21,2,14.19,14.19,0,0,1,5,5.93,21.05,21.05,0,0,1,6.17-5.93,13.55,13.55,0,0,1,7-2,14.17,14.17,0,0,1,8.07,2.21,13.27,13.27,0,0,1,4.93,6.52c.79,2.1,1.18,5.53,1.18,10.26V302h-11.44V273.64q0-7.38-1.18-9.51a5.28,5.28,0,0,0-4.9-2.8,7.16,7.16,0,0,0-4.53,1.67,9.51,9.51,0,0,0-3.06,4.92,40.15,40.15,0,0,0-.94,10.25V302H1258.5V274.8c0-4.81-.21-7.93-.61-9.31a6,6,0,0,0-1.9-3.15,5.39,5.39,0,0,0-3.47-1,7.62,7.62,0,0,0-4.76,1.62,8.94,8.94,0,0,0-3,4.72c-.61,2.05-.92,5.46-.92,10.2V302h-11.44ZM1210,302V252.34h11.43V302Zm0-56.3V233.51h11.43v12.14ZM1159.45,302V234.09h12.1v56.29h30V302Zm-46.8,0V233.51h11.44V302Zm-23.19,0V252.34h11.44V302Zm0-56.3V233.51h11.44v12.14Zm-41.89,31.59c0,4.92,1,8.7,3,11.31a9.15,9.15,0,0,0,15,0c2-2.61,3-6.42,3-11.41s-1-8.59-3-11.21a9.16,9.16,0,0,0-15,0Q1047.56,269.86,1047.57,277.24Zm-11.77-.7a29.85,29.85,0,0,1,2.81-12.66,20.83,20.83,0,0,1,19.48-12.59,20.26,20.26,0,0,1,16.09,7.31q6.28,7.33,6.28,18.49t-6.33,18.69a20.13,20.13,0,0,1-16,7.41,22.64,22.64,0,0,1-11.35-3.09,19.89,19.89,0,0,1-8.21-9.05A33.71,33.71,0,0,1,1035.8,276.54ZM988,288l11.52-2a9.73,9.73,0,0,0,3,5.76,9.12,9.12,0,0,0,6.27,2q4.44,0,6.69-1.87a4.44,4.44,0,0,0,1.5-3.52,3.74,3.74,0,0,0-.82-2.46,8.36,8.36,0,0,0-3.82-1.74q-13.87-3.51-17.59-6.4a13.43,13.43,0,0,1-5.15-11.19A14.66,14.66,0,0,1,994,255.69q4.44-4.41,13.77-4.4c5.92,0,10.33,1.12,13.21,3.33s4.87,5.51,6,9.86l-10.77,2.29a7.83,7.83,0,0,0-2.64-4.47,8.69,8.69,0,0,0-5.55-1.55c-3,0-5.21.48-6.53,1.45a3.21,3.21,0,0,0-1.31,2.66,3,3,0,0,0,1.15,2.39c1,.88,4.61,2.1,10.74,3.7s10.39,3.53,12.81,5.84,3.6,5.6,3.6,9.77a15.87,15.87,0,0,1-5,11.73q-5,4.89-14.73,4.9-8.85,0-14-4.1A19,19,0,0,1,988,288Zm-18.46-9.75a64.12,64.12,0,0,1-7,2c-3.17.78-5.26,1.55-6.23,2.28a5.74,5.74,0,0,0-2.24,4.62,6.89,6.89,0,0,0,1.79,4.76,5.84,5.84,0,0,0,4.56,2,9.21,9.21,0,0,0,5.92-2.33,8.31,8.31,0,0,0,2.72-4.34,30.13,30.13,0,0,0,.45-6.4Zm-15.36-10.61-10.35-2.1q1.76-7.26,6-10.75t12.71-3.49q7.66,0,11.42,2.07a12.14,12.14,0,0,1,5.28,5.27c1,2.14,1.53,6,1.53,11.75l-.17,15.29a62,62,0,0,0,.54,9.64,31.19,31.19,0,0,0,2.05,6.64H971.83c-.29-.86-.66-2.14-1.09-3.83-.19-.77-.32-1.29-.41-1.53a20.52,20.52,0,0,1-6.26,5,15.93,15.93,0,0,1-7.11,1.65c-4.43,0-7.94-1.38-10.5-4.16a14.84,14.84,0,0,1-3.84-10.5,15.76,15.76,0,0,1,1.75-7.48,12.09,12.09,0,0,1,4.91-5,35.07,35.07,0,0,1,9.1-3.07,56.47,56.47,0,0,0,11.12-3.21v-1.33c0-2.55-.54-4.36-1.63-5.46s-3.16-1.62-6.18-1.62a7.29,7.29,0,0,0-4.77,1.4A9.8,9.8,0,0,0,954.14,267.63Zm-45.56,9.18V265.25h26v27.3a32.09,32.09,0,0,1-11,7.44,35.49,35.49,0,0,1-14.56,3.2,29.32,29.32,0,0,1-16.33-4.51,27.65,27.65,0,0,1-10.47-12.92,47.05,47.05,0,0,1-3.5-18.27,44.38,44.38,0,0,1,3.9-19,28.57,28.57,0,0,1,11.45-12.78c3.85-2.28,8.61-3.41,14.31-3.41q11.11,0,17.39,5.35c4.16,3.59,6.84,8.51,8,14.82l-12,2.58a14.77,14.77,0,0,0-4.74-8,13,13,0,0,0-8.69-2.92,15.27,15.27,0,0,0-12.54,5.75q-4.66,5.76-4.67,17.06,0,12.22,4.72,18.31a15,15,0,0,0,12.38,6.1,18.56,18.56,0,0,0,7.59-1.7,25.07,25.07,0,0,0,6.53-4.15v-8.68ZM845.92,302H834.49V276.67c0-5.36-.25-8.81-.74-10.37a7.28,7.28,0,0,0-2.41-3.67,6.3,6.3,0,0,0-4-1.3,8.52,8.52,0,0,0-5.39,1.86,9.35,9.35,0,0,0-3.27,4.94q-.88,3.09-.89,11.39V302H806.36V252.34H817v7.28q5.7-8.34,14.34-8.33a15.53,15.53,0,0,1,7,1.56,11.93,11.93,0,0,1,4.77,4,15.18,15.18,0,0,1,2.25,5.5,45.9,45.9,0,0,1,.64,8.82ZM784,278.24a63.43,63.43,0,0,1-7,2c-3.17.78-5.26,1.55-6.23,2.28a5.74,5.74,0,0,0-2.24,4.62,6.85,6.85,0,0,0,1.8,4.76,5.83,5.83,0,0,0,4.56,2,9.18,9.18,0,0,0,5.91-2.33,8.27,8.27,0,0,0,2.73-4.34,30.34,30.34,0,0,0,.44-6.4Zm-15.35-10.61-10.36-2.1q1.75-7.26,6-10.75c2.85-2.33,7.1-3.49,12.72-3.49q7.66,0,11.42,2.07a12.06,12.06,0,0,1,5.27,5.27c1,2.14,1.53,6,1.53,11.75l-.16,15.29a62,62,0,0,0,.54,9.64,30.56,30.56,0,0,0,2,6.64H786.31c-.29-.86-.67-2.14-1.1-3.83-.18-.77-.32-1.29-.4-1.53a20.76,20.76,0,0,1-6.26,5,16,16,0,0,1-7.11,1.65q-6.66,0-10.5-4.16a14.84,14.84,0,0,1-3.84-10.5,15.64,15.64,0,0,1,1.75-7.48,12.09,12.09,0,0,1,4.91-5,34.8,34.8,0,0,1,9.1-3.07A56.31,56.31,0,0,0,784,269.74v-1.33c0-2.55-.54-4.36-1.62-5.46s-3.16-1.62-6.18-1.62a7.27,7.27,0,0,0-4.77,1.4A9.72,9.72,0,0,0,768.62,267.63Zm-17.21-.57-11.27,2.29a9.77,9.77,0,0,0-2.59-5.79,7.26,7.26,0,0,0-5.23-1.95,8.1,8.1,0,0,0-6.83,3.4c-1.7,2.26-2.55,6-2.55,11.34q0,8.83,2.59,12.48a8.05,8.05,0,0,0,6.93,3.66,7.12,7.12,0,0,0,5.33-2.14c1.39-1.41,2.36-3.86,2.93-7.33l11.27,2.2q-1.75,8.89-6.72,13.43t-13.33,4.54q-9.47,0-15.12-6.87t-5.65-19q0-12.32,5.67-19.15t15.31-6.85q7.89,0,12.57,3.91T751.41,267.06ZM690.49,302V252.34h11.44V302Zm0-56.3V233.51h11.44v12.14ZM668.94,302H657.5V252.34h10.61v7q2.73-5,4.92-6.54a8.33,8.33,0,0,1,5-1.55,13.29,13.29,0,0,1,7.55,2.47L682,265.2a9.23,9.23,0,0,0-5.38-2.16,5.9,5.9,0,0,0-4.09,1.52c-1.11,1-2,2.84-2.63,5.48s-1,8.19-1,16.61ZM625.2,252.34h6.34V248.6c0-4.17.39-7.3,1.17-9.35a10.06,10.06,0,0,1,4.3-5,14.93,14.93,0,0,1,8-1.94,28.45,28.45,0,0,1,9.62,1.68l-1.46,9.11a20.77,20.77,0,0,0-5.38-.76,4.45,4.45,0,0,0-3.64,1.34c-.74.9-1.12,2.61-1.12,5.16v3.54h8.6v10.32H643V302H631.54V262.66H625.2ZM601.74,274.8l-8.31-25.33-8.07,25.33ZM623.85,302h-13l-5.16-15.58h-24l-5,15.58h-12.8l23.21-68.44h12.78Zm-85.12-49.61v10.42h-7.85v20.09a57.82,57.82,0,0,0,.22,7.12,3,3,0,0,0,1,1.67,3,3,0,0,0,1.94.65,13.25,13.25,0,0,0,4.62-1.25l1,10.19a20.17,20.17,0,0,1-9,2,12.78,12.78,0,0,1-5.57-1.19,8.33,8.33,0,0,1-3.63-3.1,13.31,13.31,0,0,1-1.61-5.14,74.72,74.72,0,0,1-.36-9.29V262.76h-5.26V252.34h5.26V242.5l11.43-7.75v17.59ZM468.43,288,480,286a9.79,9.79,0,0,0,3,5.76,9.16,9.16,0,0,0,6.27,2c3,0,5.19-.62,6.69-1.87a4.41,4.41,0,0,0,1.51-3.52,3.7,3.7,0,0,0-.83-2.46,8.3,8.3,0,0,0-3.82-1.74q-13.87-3.51-17.58-6.4A13.43,13.43,0,0,1,470,266.55a14.68,14.68,0,0,1,4.45-10.86q4.44-4.41,13.77-4.4c5.93,0,10.34,1.12,13.22,3.33a17.21,17.21,0,0,1,6,9.86l-10.76,2.29A7.84,7.84,0,0,0,494,262.3a8.65,8.65,0,0,0-5.55-1.55q-4.54,0-6.52,1.45a3.21,3.21,0,0,0-1.31,2.66,3,3,0,0,0,1.14,2.39c1,.88,4.62,2.1,10.74,3.7s10.39,3.53,12.81,5.84,3.61,5.6,3.61,9.77a15.88,15.88,0,0,1-5,11.73q-5,4.89-14.73,4.9-8.85,0-14-4.1A19,19,0,0,1,468.43,288ZM450,278.24a63.43,63.43,0,0,1-7,2c-3.17.78-5.26,1.55-6.23,2.28a5.74,5.74,0,0,0-2.24,4.62,6.89,6.89,0,0,0,1.79,4.76,5.86,5.86,0,0,0,4.57,2,9.18,9.18,0,0,0,5.91-2.33,8.33,8.33,0,0,0,2.73-4.34,30.34,30.34,0,0,0,.44-6.4Zm-15.36-10.61-10.35-2.1q1.75-7.26,6-10.75c2.85-2.33,7.1-3.49,12.71-3.49q7.67,0,11.43,2.07a12.06,12.06,0,0,1,5.27,5.27c1,2.14,1.53,6,1.53,11.75l-.16,15.29a60.79,60.79,0,0,0,.54,9.64,30.56,30.56,0,0,0,2,6.64H452.31c-.29-.86-.67-2.14-1.1-3.83-.18-.77-.32-1.29-.4-1.53a20.67,20.67,0,0,1-6.27,5,15.89,15.89,0,0,1-7.1,1.65q-6.66,0-10.51-4.16a14.84,14.84,0,0,1-3.84-10.5,15.65,15.65,0,0,1,1.76-7.48,12,12,0,0,1,4.91-5,34.8,34.8,0,0,1,9.1-3.07A56.53,56.53,0,0,0,450,269.74v-1.33c0-2.55-.54-4.36-1.63-5.46s-3.15-1.62-6.17-1.62a7.25,7.25,0,0,0-4.77,1.4A9.73,9.73,0,0,0,434.61,267.63ZM370.51,302V233.51h44.23v11.57H382.61v15.19H412.5v11.57H382.61v18.54h33.31V302Z"></path></g></g></svg>